<svg width="174" height="221" viewBox="0 0 174 221" fill="none" xmlns="http://www.w3.org/2000/svg">
<path d="M89.7139 152.88C89.0073 155.487 88.3086 158.066 87.6049 160.598C87.282 156.798 86.8906 152.849 86.25 148.874L86.2315 148.759L86.2093 148.646C83.8685 136.663 77.2096 126.485 65.3865 119.074C64.5916 118.572 63.7893 118.061 62.9783 117.544C53.5257 111.522 42.8869 104.743 29.0606 102.382C46.4296 99.3364 59.8251 92.9452 70.2224 83.9277C81.3034 74.3174 88.5332 62.1109 93.7123 48.9357L93.7193 48.9179L93.7262 48.9001C94.9039 45.8553 95.8332 42.6051 96.6306 39.4225C96.5273 41.0746 96.4239 42.7377 96.3204 44.4221L96.3193 44.4407L96.3183 44.4593C96.2027 46.521 96.0396 48.7123 95.8711 50.9759C95.5148 55.763 95.1344 60.8734 95.1286 65.7656C94.6408 82.2178 108.355 90.8857 120.422 95.5653L120.481 95.5879L120.539 95.6095C122.469 96.3186 124.457 96.9575 126.502 97.5071C125.327 97.812 124.166 98.1293 123.018 98.4531L122.93 98.4778L122.844 98.5047C118.091 99.9791 112.739 103.021 109.577 107.277C109.5 107.369 109.422 107.462 109.344 107.556C105.301 112.398 100.264 118.43 97.8702 125.454C94.705 134.461 92.1626 143.843 89.7139 152.88ZM100.56 24.6986C100.56 24.6988 100.556 24.7011 100.548 24.7053C100.556 24.7006 100.56 24.6985 100.56 24.6986ZM97.5841 23.6959C97.5841 23.6959 97.5842 23.699 97.5843 23.7053C97.5841 23.6991 97.584 23.6959 97.5841 23.6959Z" stroke="#81ADC8" stroke-width="14"/>
<path d="M143.255 179.886C142.402 182.313 141.66 184.833 140.97 187.315C139.755 183.07 137.095 179.45 132.807 176.761C132.501 176.568 132.19 176.369 131.874 176.168C129.452 174.623 126.716 172.878 123.484 171.615C127.99 170.227 131.724 168.143 134.816 165.46C137.974 162.722 140.335 159.471 142.165 155.966C142.147 156.482 142.136 156.996 142.135 157.501C141.948 164.119 147.035 167.717 151.48 169.661C150.151 170.358 148.862 171.326 147.939 172.555C147.903 172.598 147.867 172.641 147.83 172.685C146.317 174.496 144.252 176.966 143.255 179.886ZM117.691 169.708C117.691 169.708 117.693 169.712 117.698 169.72C117.693 169.712 117.69 169.708 117.691 169.708Z" stroke="#CD4631" stroke-width="8"/>
<path d="M29.2551 40.6102C28.4025 43.037 27.6604 45.5566 26.9696 48.0389C25.7548 43.7935 23.0949 40.1736 18.8067 37.4852C18.5008 37.2918 18.1899 37.0935 17.8736 36.8918C15.4518 35.347 12.716 33.602 9.48421 32.3387C13.9899 30.9506 17.7237 28.8667 20.8164 26.1844C23.9742 23.4458 26.3352 20.1947 28.1654 16.69C28.1469 17.2064 28.1357 17.72 28.1348 18.2248C27.9479 24.8435 33.0354 28.4413 37.4802 30.3853C36.1514 31.0818 34.8618 32.0495 33.939 33.2785C33.903 33.3217 33.8666 33.3653 33.8298 33.4092C32.3169 35.2196 30.2521 37.6902 29.2551 40.6102ZM3.69056 30.4318C3.6907 30.4318 3.6934 30.4358 3.69816 30.4436C3.69279 30.4357 3.69041 30.4318 3.69056 30.4318Z" stroke="#CD4631" stroke-width="8"/>
<path d="M49.2113 198.522C50.6965 197.234 51.9015 195.77 52.8956 194.202C53.2288 197.55 55.6954 199.571 58.0514 200.776C57.4948 201.162 56.9772 201.63 56.5622 202.179C56.5384 202.208 56.5143 202.237 56.4899 202.266C55.5646 203.372 54.2315 204.967 53.5822 206.866C53.2313 207.865 52.9094 208.893 52.607 209.922C51.676 207.843 50.1252 206.053 47.9047 204.661C47.7151 204.541 47.5216 204.418 47.324 204.291C46.1515 203.543 44.8328 202.701 43.3235 201.985C45.6005 201.129 47.5486 199.964 49.2113 198.522Z" stroke="black" stroke-width="6"/>
</svg>
