<svg width="109" height="121" viewBox="0 0 109 121" fill="none" xmlns="http://www.w3.org/2000/svg">
<path d="M42.6469 7.96716C44.2533 -2.02683 58.583 -2.16984 60.3885 7.79009L61.1124 11.7834C62.3496 18.6084 70.5324 21.5081 75.7911 16.9852V16.9852C83.5226 10.3353 94.5908 19.6869 89.325 28.4201L88.4021 29.9507C84.7451 36.0157 89.2021 43.733 96.2831 43.5963L99.1291 43.5414C109.32 43.3447 111.935 57.5701 102.341 61.0113L86.3221 66.757C82.693 68.0586 82.1213 72.9515 85.3524 75.0548V75.0548C90.1979 78.209 85.7075 85.4331 80.4563 83.0139V83.0139C76.9992 81.4213 73.1251 84.3577 73.8096 88.102L76.3968 102.253C78.085 111.487 65.3398 115.715 61.1746 107.302V107.302C58.3418 101.581 50.3109 101.235 46.9969 106.692L41.4911 115.757C36.2723 124.35 23.0318 119.219 24.967 109.353L27.2832 97.5452C28.2404 92.6653 23.4458 88.6436 18.8069 90.4352V90.4352C11.7019 93.1792 6.70914 83.3301 13.1224 79.2214L19.5551 75.1002C24.6975 71.8057 23.5454 63.9842 17.6715 62.3124L5.65521 58.8923C-3.10659 56.3985 -1.17421 43.4633 7.93387 43.6391L12.229 43.722C16.4808 43.804 19.157 39.1702 16.9612 35.5284V35.5284C13.5402 29.855 21.3658 24.1913 25.686 29.2139L28.9262 32.981C32.1562 36.7361 38.3018 34.9989 39.0879 30.1084L42.6469 7.96716Z" fill="black"/>
</svg>
