<svg width="40" height="40" viewBox="0 0 40 40" fill="none" xmlns="http://www.w3.org/2000/svg">
<g clip-path="url(#clip0_39_26)">
<path d="M40 0H0V40H40V0Z" fill="#F1DC50"/>
<path d="M20 18.3334C20 26.2487 20 30.6932 20 31.6667C20 33.127 19.1285 35 16.6667 35C12.691 35 12.5 31.6667 12.5 31.6667M34.6499 22.5268C33.6498 20.8423 32.324 20 30.6726 20C28.0939 20 26.6667 21.6667 26.6667 23.3334C26.6667 25 27.5 26.6667 30.8474 27.5C32.9774 28.0303 35 29.1667 35 31.6667C35 34.1667 32.8076 35 30.8333 35C28.3103 35 26.6436 33.8889 25.8333 31.6667" stroke="white" stroke-width="3.33333"/>
</g>
<defs>
<clipPath id="clip0_39_26">
<rect width="40" height="40" fill="white"/>
</clipPath>
</defs>
</svg>
