<svg width="232" height="214" viewBox="0 0 232 214" fill="none" xmlns="http://www.w3.org/2000/svg">
<path d="M8.40708 122.353C-1.58472 120.745 -1.72781 106.419 8.22987 104.612L51.1846 96.8163C58.0276 95.5744 60.9362 87.3713 56.4041 82.096L30.9565 52.4759C24.2904 44.7167 33.6767 33.6194 42.4343 38.9059L78.5165 60.6869C84.5814 64.348 92.3025 59.8913 92.166 52.8085L91.3298 9.42884C91.1333 -0.763399 105.362 -3.37694 108.801 6.21987L127.818 59.2991C129.83 64.9167 137.404 65.8012 140.657 60.7985V60.7985C145.533 53.2997 156.701 60.2666 152.962 68.3921V68.3921C150.5 73.7423 155.044 79.7383 160.837 78.678L207.487 70.1394C217.749 68.2613 222.452 82.4231 213.105 87.0561L184.769 101.102C178.415 104.251 178.031 113.171 184.091 116.855L227.307 143.131C235.896 148.354 230.76 161.59 220.897 159.653L174.064 150.456C167.113 149.091 161.383 155.918 163.933 162.527L167.212 171.028C171.118 181.151 157.083 188.258 151.235 179.118L138.375 159.023C134.194 152.489 124.258 153.952 122.137 161.413L109.265 206.69C106.381 216.834 91.4063 214.599 91.6096 204.056L92.1882 174.038C92.3151 167.456 85.14 163.315 79.5041 166.717V166.717C70.7266 172.015 61.9554 159.909 69.7246 153.219L75.6036 148.157C81.4036 143.162 78.7176 133.667 71.1607 132.451L8.40708 122.353Z" fill="black"/>
</svg>
