<svg width="21" height="22" viewBox="0 0 21 22" fill="none" xmlns="http://www.w3.org/2000/svg">
<path d="M8.82668 2.2932C9.15151 0.29501 12.0155 0.266133 12.3806 2.25737L12.4141 2.44008C12.6495 3.72424 14.1867 4.27209 15.1813 3.4263V3.4263C16.6495 2.17768 18.7317 3.95598 17.7282 5.6015L17.6259 5.76925C16.9161 6.93318 17.7823 8.42197 19.1453 8.39596V8.39596C21.1362 8.35797 21.6813 11.139 19.8045 11.8046L17.1909 12.7315C16.5066 12.9742 16.3994 13.8972 17.01 14.2903V14.2903C17.9217 14.877 17.0554 16.2218 16.0688 15.7724V15.7724C15.4184 15.4762 14.6888 16.0277 14.8187 16.7305L15.3036 19.3527C15.6264 21.0987 13.2191 21.906 12.4241 20.3182V20.3182C11.8856 19.2429 10.3753 19.1775 9.74588 20.2022L9.20975 21.0751C8.11288 22.8608 5.3581 21.7818 5.76591 19.7261L6.00904 18.5006C6.19082 17.5843 5.29265 16.8263 4.41995 17.1596V17.1596C3.08115 17.6708 2.14978 15.8131 3.36042 15.0462L4.53842 14.3C5.50903 13.6851 5.29357 12.2113 4.18757 11.9001L1.93509 11.2662C0.288897 10.8029 0.647961 8.37293 2.35779 8.40556L3.16046 8.42087C3.96279 8.43618 4.46593 7.55972 4.04813 6.8746V6.8746C3.3992 5.81047 4.86562 4.73727 5.68366 5.67763L6.32901 6.41946C6.94073 7.12265 8.095 6.79398 8.24456 5.87403L8.82668 2.2932Z" fill="black"/>
</svg>
