<svg width="82" height="81" viewBox="0 0 82 81" fill="none" xmlns="http://www.w3.org/2000/svg">
<path d="M57.7613 45.5868C56.3312 45.5792 55.12 45.6031 53.9129 45.5583C51.8654 45.4906 49.8463 45.3326 47.9517 44.4047C46.0303 43.4614 44.9865 41.9221 45.0341 39.8274C45.0653 38.5413 45.4453 37.267 45.7146 35.9998C45.8225 35.5048 46.0717 35.0322 46.3397 34.3215C45.3339 34.8315 44.5502 35.2445 43.75 35.6242C41.7986 36.5605 39.8838 37.5771 37.8809 38.3769C35.1417 39.4867 33.0614 38.5108 32.0423 35.7173C31.6434 34.6216 31.5087 33.4175 31.2655 32.2575C31.1945 31.9083 31.1744 31.5529 31.1216 31.1311C29.7204 32.634 28.4099 34.0825 27.0525 35.4684C23.8824 38.7004 20.9184 36.8114 19.7177 33.9012C19.3965 33.1229 19.2603 32.2499 19.1175 31.4088C19.0411 30.843 19.2715 30.3002 19.8971 30.2228C20.4629 30.1464 20.7487 30.5959 20.9018 31.1111C21.06 31.6174 21.185 32.1401 21.3956 32.6173C21.6427 33.1749 21.8987 33.7377 22.2505 34.2372C23.2427 35.6399 24.3344 35.8434 25.6866 34.7746C26.6425 34.0224 27.4921 33.1258 28.3403 32.2522C29.1297 31.4394 29.8849 30.5831 30.6401 29.7269C31.0342 29.2905 31.4462 28.8645 32.0861 29.0087C32.8215 29.1724 32.9434 29.8237 33.0592 30.424C33.2111 31.1875 33.2471 31.9671 33.4412 32.7193C33.6738 33.6717 33.9294 34.6254 34.3036 35.5172C34.8153 36.7255 35.4938 37.0698 36.7612 36.7227C37.9725 36.3906 39.1931 35.9809 40.3377 35.4562C42.7841 34.3197 45.1799 33.1065 47.5808 31.8845C48.15 31.5966 48.6638 31.4665 49.1624 31.8966C49.6395 32.3024 49.5568 32.8357 49.3456 33.3658C48.967 34.309 48.5426 35.2495 48.2136 36.2096C47.9284 37.0526 47.6507 37.9237 47.5245 38.7993C47.1817 41.1385 48.0063 42.4208 50.2161 43.2342C51.8765 43.8491 53.6034 44.1229 55.3619 44.1779C56.6289 44.2217 57.8962 44.1828 59.157 44.1757C59.8243 44.1697 60.5146 44.1651 60.8143 44.9191C61.0887 45.6348 60.661 46.1703 60.2169 46.6726C60.0249 46.8819 59.8025 47.0617 59.589 47.2467C59.1531 47.6115 58.7336 48.0096 58.2636 48.3309C54.7838 50.744 54.3015 54.1052 55.2614 57.8841C55.4404 58.5803 55.8387 59.2252 56.158 59.8837C56.3131 60.2104 56.5716 60.5019 56.6848 60.8399C56.7716 61.0797 56.794 61.472 56.652 61.6153C56.4997 61.7764 56.1125 61.7899 55.8745 61.771C55.3577 61.7216 54.8372 61.35 54.5383 60.9641C53.9496 60.1973 53.3879 59.3632 53.0505 58.469C52.2952 56.4917 52.181 54.4103 52.4361 52.3051C52.6543 50.5104 53.5813 49.0895 54.8894 47.9122C55.7536 47.1545 56.6685 46.4734 57.7613 45.5868Z" fill="#81ADC8"/>
</svg>
