<svg width="93" height="70" viewBox="0 0 93 70" fill="none" xmlns="http://www.w3.org/2000/svg">
<path d="M13.245 29.5H18.015C19.155 29.5 20.16 29.72 21.03 30.16C21.91 30.59 22.59 31.2 23.07 31.99C23.56 32.78 23.805 33.7 23.805 34.75C23.805 35.8 23.56 36.72 23.07 37.51C22.59 38.3 21.91 38.915 21.03 39.355C20.16 39.785 19.155 40 18.015 40H13.245V29.5ZM17.895 38.005C18.945 38.005 19.78 37.715 20.4 37.135C21.03 36.545 21.345 35.75 21.345 34.75C21.345 33.75 21.03 32.96 20.4 32.38C19.78 31.79 18.945 31.495 17.895 31.495H15.675V38.005H17.895ZM32.8526 31.93V40H30.6326V39.04C30.3226 39.39 29.9526 39.66 29.5226 39.85C29.0926 40.03 28.6276 40.12 28.1276 40.12C27.0676 40.12 26.2276 39.815 25.6076 39.205C24.9876 38.595 24.6776 37.69 24.6776 36.49V31.93H27.0176V36.145C27.0176 37.445 27.5626 38.095 28.6526 38.095C29.2126 38.095 29.6626 37.915 30.0026 37.555C30.3426 37.185 30.5126 36.64 30.5126 35.92V31.93H32.8526ZM39.4004 40L37.6304 37.525L35.8004 40H33.2504L36.3554 35.935L33.3554 31.93H35.9804L37.6904 34.285L39.4454 31.93H41.9354L38.9354 35.875L42.0554 40H39.4004ZM70.069 40L67.534 36.355L65.044 40H62.254L66.139 34.66L62.449 29.5H65.209L67.624 32.905L69.994 29.5H72.619L68.959 34.57L72.874 40H70.069ZM73.1005 31.93H75.4405V40H73.1005V31.93ZM74.2705 30.805C73.8405 30.805 73.4905 30.68 73.2205 30.43C72.9505 30.18 72.8155 29.87 72.8155 29.5C72.8155 29.13 72.9505 28.82 73.2205 28.57C73.4905 28.32 73.8405 28.195 74.2705 28.195C74.7005 28.195 75.0505 28.315 75.3205 28.555C75.5905 28.795 75.7255 29.095 75.7255 29.455C75.7255 29.845 75.5905 30.17 75.3205 30.43C75.0505 30.68 74.7005 30.805 74.2705 30.805ZM80.9272 38.245C81.3472 38.245 81.7172 38.185 82.0372 38.065C82.3672 37.935 82.6722 37.735 82.9522 37.465L84.1972 38.815C83.4372 39.685 82.3272 40.12 80.8672 40.12C79.9572 40.12 79.1522 39.945 78.4522 39.595C77.7522 39.235 77.2122 38.74 76.8322 38.11C76.4522 37.48 76.2622 36.765 76.2622 35.965C76.2622 35.175 76.4472 34.465 76.8172 33.835C77.1972 33.195 77.7122 32.7 78.3622 32.35C79.0222 31.99 79.7622 31.81 80.5822 31.81C81.3522 31.81 82.0522 31.975 82.6822 32.305C83.3122 32.625 83.8122 33.095 84.1822 33.715C84.5622 34.325 84.7522 35.05 84.7522 35.89L78.7822 37.045C78.9522 37.445 79.2172 37.745 79.5772 37.945C79.9472 38.145 80.3972 38.245 80.9272 38.245ZM80.5822 33.58C79.9922 33.58 79.5122 33.77 79.1422 34.15C78.7722 34.53 78.5772 35.055 78.5572 35.725L82.4872 34.96C82.3772 34.54 82.1522 34.205 81.8122 33.955C81.4722 33.705 81.0622 33.58 80.5822 33.58ZM88.2901 40.12C87.6201 40.12 86.9651 40.04 86.3251 39.88C85.6851 39.71 85.1751 39.5 84.7951 39.25L85.5751 37.57C85.9351 37.8 86.3701 37.99 86.8801 38.14C87.3901 38.28 87.8901 38.35 88.3801 38.35C89.3701 38.35 89.8651 38.105 89.8651 37.615C89.8651 37.385 89.7301 37.22 89.4601 37.12C89.1901 37.02 88.7751 36.935 88.2151 36.865C87.5551 36.765 87.0101 36.65 86.5801 36.52C86.1501 36.39 85.7751 36.16 85.4551 35.83C85.1451 35.5 84.9901 35.03 84.9901 34.42C84.9901 33.91 85.1351 33.46 85.4251 33.07C85.7251 32.67 86.1551 32.36 86.7151 32.14C87.2851 31.92 87.9551 31.81 88.7251 31.81C89.2951 31.81 89.8601 31.875 90.4201 32.005C90.9901 32.125 91.4601 32.295 91.8301 32.515L91.0501 34.18C90.3401 33.78 89.5651 33.58 88.7251 33.58C88.2251 33.58 87.8501 33.65 87.6001 33.79C87.3501 33.93 87.2251 34.11 87.2251 34.33C87.2251 34.58 87.3601 34.755 87.6301 34.855C87.9001 34.955 88.3301 35.05 88.9201 35.14C89.5801 35.25 90.1201 35.37 90.5401 35.5C90.9601 35.62 91.3251 35.845 91.6351 36.175C91.9451 36.505 92.1001 36.965 92.1001 37.555C92.1001 38.055 91.9501 38.5 91.6501 38.89C91.3501 39.28 90.9101 39.585 90.3301 39.805C89.7601 40.015 89.0801 40.12 88.2901 40.12Z" fill="black"/>
<path d="M49.7794 40.12C48.9294 40.12 48.1644 39.945 47.4844 39.595C46.8144 39.235 46.2894 38.74 45.9094 38.11C45.5294 37.48 45.3394 36.765 45.3394 35.965C45.3394 35.165 45.5294 34.45 45.9094 33.82C46.2894 33.19 46.8144 32.7 47.4844 32.35C48.1644 31.99 48.9294 31.81 49.7794 31.81C50.6294 31.81 51.3894 31.99 52.0594 32.35C52.7294 32.7 53.2544 33.19 53.6344 33.82C54.0144 34.45 54.2044 35.165 54.2044 35.965C54.2044 36.765 54.0144 37.48 53.6344 38.11C53.2544 38.74 52.7294 39.235 52.0594 39.595C51.3894 39.945 50.6294 40.12 49.7794 40.12ZM49.7794 38.2C50.3794 38.2 50.8694 38 51.2494 37.6C51.6394 37.19 51.8344 36.645 51.8344 35.965C51.8344 35.285 51.6394 34.745 51.2494 34.345C50.8694 33.935 50.3794 33.73 49.7794 33.73C49.1794 33.73 48.6844 33.935 48.2944 34.345C47.9044 34.745 47.7094 35.285 47.7094 35.965C47.7094 36.645 47.9044 37.19 48.2944 37.6C48.6844 38 49.1794 38.2 49.7794 38.2ZM57.2985 32.11H59.3685V33.91H57.3585V40H55.0185V31.75C55.0185 30.83 55.2885 30.1 55.8285 29.56C56.3785 29.02 57.1485 28.75 58.1385 28.75C58.4885 28.75 58.8185 28.79 59.1285 28.87C59.4485 28.94 59.7135 29.045 59.9235 29.185L59.3085 30.88C59.0385 30.69 58.7235 30.595 58.3635 30.595C57.6535 30.595 57.2985 30.985 57.2985 31.765V32.11Z" fill="#D74A52"/>
<path d="M66.3666 47.6535C66.9696 47.8967 67.263 48.5838 66.9997 49.1782C63.8876 56.2023 58.5448 62.0185 51.784 65.7131C44.6784 69.5962 36.4462 70.8954 28.49 69.3892C20.5339 67.8831 13.3461 63.6649 8.15143 57.4534C2.95672 51.2418 0.0764932 43.4212 0.00150101 35.3241C-0.0734911 27.2271 2.66139 19.3545 7.74016 13.0478C12.8189 6.74105 19.9273 2.39044 27.8542 0.737225C35.7811 -0.91599 44.036 0.230475 51.2123 3.98128C58.0403 7.55001 63.49 13.2663 66.7316 20.2315C67.0059 20.821 66.7253 21.5134 66.1269 21.7678V21.7678C65.5285 22.0221 64.8392 21.7421 64.5634 21.1533C61.5359 14.6891 56.4668 9.3844 50.1216 6.06801C43.4281 2.56953 35.7285 1.5002 28.3349 3.04219C20.9413 4.58419 14.3111 8.64212 9.57402 14.5246C4.83692 20.407 2.28602 27.75 2.35596 35.3023C2.42591 42.8547 5.11238 50.1492 9.95762 55.9429C14.8029 61.7366 21.5071 65.671 28.928 67.0758C36.3489 68.4806 44.0273 67.2688 50.6549 63.647C56.9376 60.2136 61.9075 54.8159 64.8148 48.2968C65.0796 47.703 65.7637 47.4102 66.3666 47.6535V47.6535Z" fill="black"/>
</svg>
