<svg width="219" height="176" viewBox="0 0 219 176" fill="none" xmlns="http://www.w3.org/2000/svg">
<path d="M27.988 75.8H39.436C42.172 75.8 44.584 76.328 46.672 77.384C48.784 78.416 50.416 79.88 51.568 81.776C52.744 83.672 53.332 85.88 53.332 88.4C53.332 90.92 52.744 93.128 51.568 95.024C50.416 96.92 48.784 98.396 46.672 99.452C44.584 100.484 42.172 101 39.436 101H27.988V75.8ZM39.148 96.212C41.668 96.212 43.672 95.516 45.16 94.124C46.672 92.708 47.428 90.8 47.428 88.4C47.428 86 46.672 84.104 45.16 82.712C43.672 81.296 41.668 80.588 39.148 80.588H33.82V96.212H39.148ZM75.0462 81.632V101H69.7182V98.696C68.9742 99.536 68.0862 100.184 67.0542 100.64C66.0222 101.072 64.9062 101.288 63.7062 101.288C61.1622 101.288 59.1462 100.556 57.6582 99.092C56.1702 97.628 55.4262 95.456 55.4262 92.576V81.632H61.0422V91.748C61.0422 94.868 62.3502 96.428 64.9662 96.428C66.3102 96.428 67.3902 95.996 68.2062 95.132C69.0222 94.244 69.4302 92.936 69.4302 91.208V81.632H75.0462ZM90.761 101L86.513 95.06L82.121 101H76.001L83.453 91.244L76.253 81.632H82.553L86.657 87.284L90.869 81.632H96.845L89.645 91.1L97.133 101H90.761ZM164.366 101L158.282 92.252L152.306 101H145.61L154.934 88.184L146.078 75.8H152.702L158.498 83.972L164.186 75.8H170.486L161.702 87.968L171.098 101H164.366ZM171.641 81.632H177.257V101H171.641V81.632ZM174.449 78.932C173.417 78.932 172.577 78.632 171.929 78.032C171.281 77.432 170.957 76.688 170.957 75.8C170.957 74.912 171.281 74.168 171.929 73.568C172.577 72.968 173.417 72.668 174.449 72.668C175.481 72.668 176.321 72.956 176.969 73.532C177.617 74.108 177.941 74.828 177.941 75.692C177.941 76.628 177.617 77.408 176.969 78.032C176.321 78.632 175.481 78.932 174.449 78.932ZM190.425 96.788C191.433 96.788 192.321 96.644 193.089 96.356C193.881 96.044 194.613 95.564 195.285 94.916L198.273 98.156C196.449 100.244 193.785 101.288 190.281 101.288C188.097 101.288 186.165 100.868 184.485 100.028C182.805 99.164 181.509 97.976 180.597 96.464C179.685 94.952 179.229 93.236 179.229 91.316C179.229 89.42 179.673 87.716 180.561 86.204C181.473 84.668 182.709 83.48 184.269 82.64C185.853 81.776 187.629 81.344 189.597 81.344C191.445 81.344 193.125 81.74 194.637 82.532C196.149 83.3 197.349 84.428 198.237 85.916C199.149 87.38 199.605 89.12 199.605 91.136L185.277 93.908C185.685 94.868 186.321 95.588 187.185 96.068C188.073 96.548 189.153 96.788 190.425 96.788ZM189.597 85.592C188.181 85.592 187.029 86.048 186.141 86.96C185.253 87.872 184.785 89.132 184.737 90.74L194.169 88.904C193.905 87.896 193.365 87.092 192.549 86.492C191.733 85.892 190.749 85.592 189.597 85.592ZM208.096 101.288C206.488 101.288 204.916 101.096 203.38 100.712C201.844 100.304 200.62 99.8 199.708 99.2L201.58 95.168C202.444 95.72 203.488 96.176 204.712 96.536C205.936 96.872 207.136 97.04 208.312 97.04C210.688 97.04 211.876 96.452 211.876 95.276C211.876 94.724 211.552 94.328 210.904 94.088C210.256 93.848 209.26 93.644 207.916 93.476C206.332 93.236 205.024 92.96 203.992 92.648C202.96 92.336 202.06 91.784 201.292 90.992C200.548 90.2 200.176 89.072 200.176 87.608C200.176 86.384 200.524 85.304 201.22 84.368C201.94 83.408 202.972 82.664 204.316 82.136C205.684 81.608 207.292 81.344 209.14 81.344C210.508 81.344 211.864 81.5 213.208 81.812C214.576 82.1 215.704 82.508 216.592 83.036L214.72 87.032C213.016 86.072 211.156 85.592 209.14 85.592C207.94 85.592 207.04 85.76 206.44 86.096C205.84 86.432 205.54 86.864 205.54 87.392C205.54 87.992 205.864 88.412 206.512 88.652C207.16 88.892 208.192 89.12 209.608 89.336C211.192 89.6 212.488 89.888 213.496 90.2C214.504 90.488 215.38 91.028 216.124 91.82C216.868 92.612 217.24 93.716 217.24 95.132C217.24 96.332 216.88 97.4 216.16 98.336C215.44 99.272 214.384 100.004 212.992 100.532C211.624 101.036 209.992 101.288 208.096 101.288Z" fill="black"/>
<path d="M115.671 101.288C113.631 101.288 111.795 100.868 110.163 100.028C108.555 99.164 107.295 97.976 106.383 96.464C105.471 94.952 105.015 93.236 105.015 91.316C105.015 89.396 105.471 87.68 106.383 86.168C107.295 84.656 108.555 83.48 110.163 82.64C111.795 81.776 113.631 81.344 115.671 81.344C117.711 81.344 119.535 81.776 121.143 82.64C122.751 83.48 124.011 84.656 124.923 86.168C125.835 87.68 126.291 89.396 126.291 91.316C126.291 93.236 125.835 94.952 124.923 96.464C124.011 97.976 122.751 99.164 121.143 100.028C119.535 100.868 117.711 101.288 115.671 101.288ZM115.671 96.68C117.111 96.68 118.287 96.2 119.199 95.24C120.135 94.256 120.603 92.948 120.603 91.316C120.603 89.684 120.135 88.388 119.199 87.428C118.287 86.444 117.111 85.952 115.671 85.952C114.231 85.952 113.043 86.444 112.107 87.428C111.171 88.388 110.703 89.684 110.703 91.316C110.703 92.948 111.171 94.256 112.107 95.24C113.043 96.2 114.231 96.68 115.671 96.68ZM133.716 82.064H138.684V86.384H133.86V101H128.244V81.2C128.244 78.992 128.892 77.24 130.188 75.944C131.508 74.648 133.356 74 135.732 74C136.572 74 137.364 74.096 138.108 74.288C138.876 74.456 139.512 74.708 140.016 75.044L138.54 79.112C137.892 78.656 137.136 78.428 136.272 78.428C134.568 78.428 133.716 79.364 133.716 81.236V82.064Z" fill="#D74A52"/>
<path d="M166.865 119.814C168.381 120.426 169.118 122.153 168.456 123.648C160.632 141.309 147.198 155.932 130.2 165.222C112.334 174.985 91.6361 178.251 71.6321 174.464C51.6281 170.678 33.556 160.072 20.495 144.454C7.43404 128.837 0.192326 109.173 0.00377397 88.815C-0.184778 68.4566 6.6915 48.6626 19.461 32.8058C32.2304 16.9489 50.103 6.01025 70.0334 1.8536C89.9639 -2.30306 110.719 0.57948 128.762 10.0101C145.93 18.9829 159.632 33.3553 167.782 50.8678C168.472 52.3499 167.766 54.0908 166.262 54.7304C164.757 55.3699 163.024 54.6658 162.331 53.1854C154.719 36.9327 141.974 23.5951 126.02 15.2567C109.191 6.46054 89.8318 3.77192 71.2421 7.64894C52.6525 11.526 35.9822 21.7288 24.0718 36.5189C12.1614 51.309 5.7477 69.7713 5.92356 88.7602C6.09943 107.749 12.854 126.089 25.0363 140.656C37.2186 155.223 54.075 165.116 72.7332 168.648C91.3915 172.18 110.697 169.133 127.361 160.027C143.157 151.394 155.653 137.823 162.963 121.432C163.629 119.939 165.349 119.203 166.865 119.814Z" fill="black"/>
</svg>
